<?xml version="1.0" encoding="utf-8"?>
<!-- Generator: Adobe Illustrator 22.0.0, SVG Export Plug-In . SVG Version: 6.00 Build 0)  -->
<svg version="1.1" id="Layer_1" xmlns="http://www.w3.org/2000/svg" xmlns:xlink="http://www.w3.org/1999/xlink" x="0px" y="0px"
	 viewBox="0 0 112 100" style="enable-background:new 0 0 112 100;" xml:space="preserve">
<style type="text/css">
	.st0{fill:url(#SVGID_1_);}
	.st1{fill:url(#SVGID_2_);}
	.st2{opacity:0.42;fill:#1D2026;}
	.st3{fill:url(#SVGID_3_);}
	.st4{fill:url(#SVGID_4_);}
	.st5{fill:url(#SVGID_5_);}
	.st6{fill:url(#SVGID_6_);}
	.st7{fill:url(#SVGID_7_);}
	.st8{fill:url(#SVGID_8_);}
	.st9{fill:url(#SVGID_9_);}
	.st10{fill:#00BFFB;fill-opacity:0.32;}
	.st11{fill:#FFFFFF;}
</style>
<g>
	<linearGradient id="SVGID_1_" gradientUnits="userSpaceOnUse" x1="2.4674" y1="54.3634" x2="74.8874" y2="54.3634">
		<stop  offset="0" style="stop-color:#6152F5"/>
		<stop  offset="1" style="stop-color:#66A6FC"/>
	</linearGradient>
	<path class="st0" d="M25.9,31.8L2.5,60.7l48.9,16.1L74.9,48L25.9,31.8z"/>
	<linearGradient id="SVGID_2_" gradientUnits="userSpaceOnUse" x1="0.7237" y1="25.8272" x2="57.0441" y2="25.8272">
		<stop  offset="0" style="stop-color:#FF6D96"/>
		<stop  offset="1" style="stop-color:#FD8073"/>
	</linearGradient>
	<path class="st1" d="M16,9.2L0.7,18.6l41,23.9L57,33.1L16,9.2z"/>
	<g transform="translate(28 31)">
		<polygon class="st2" points="-24.1,19.3 2.6,45.4 38.4,40.5 13.3,13.2 		"/>
		<g>
			
				<linearGradient id="SVGID_3_" gradientUnits="userSpaceOnUse" x1="212.4387" y1="1158.3403" x2="268.6667" y2="1164.0258" gradientTransform="matrix(0.9488 0.3158 -0.3158 0.9488 129.9312 -1173.8384)">
				<stop  offset="0" style="stop-color:#6152F5"/>
				<stop  offset="1" style="stop-color:#66A6FC"/>
			</linearGradient>
			<polygon class="st3" points="7.2,38.1 19.1,2.4 -5.9,-22.1 -17.8,13.7 			"/>
			
				<linearGradient id="SVGID_4_" gradientUnits="userSpaceOnUse" x1="237.8248" y1="1144.6014" x2="310.2532" y2="1120.493" gradientTransform="matrix(0.9488 0.3158 -0.3158 0.9488 129.9312 -1173.8384)">
				<stop  offset="0" style="stop-color:#6152F5"/>
				<stop  offset="1" style="stop-color:#66A6FC"/>
			</linearGradient>
			<polygon class="st4" points="52.7,-2.2 19.1,2.4 -5.9,-22.1 29.1,-27.8 			"/>
			
				<linearGradient id="SVGID_5_" gradientUnits="userSpaceOnUse" x1="259.7875" y1="1169.613" x2="318.3601" y2="1150.1167" gradientTransform="matrix(0.9488 0.3158 -0.3158 0.9488 129.9312 -1173.8384)">
				<stop  offset="0" style="stop-color:#699DD1"/>
				<stop  offset="1" style="stop-color:#173D7A"/>
			</linearGradient>
			<polygon class="st5" points="52.7,-2.2 19.1,2.4 7.2,38.1 40.8,33.3 			"/>
		</g>
		<g>
			<linearGradient id="SVGID_6_" gradientUnits="userSpaceOnUse" x1="17.7245" y1="40.7222" x2="48.5324" y2="40.7222">
				<stop  offset="0" style="stop-color:#C2C9FF"/>
				<stop  offset="0.9946" style="stop-color:#DDFFDA"/>
			</linearGradient>
			<path class="st6" d="M18.1,26c2.6,2.3,5.2,4.7,7.7,7.1c2.5,2.4,5,4.9,7.6,7.3c2.5,2.5,5,4.9,7.5,7.4c2.5,2.5,4.9,5,7.3,7.5
				c-2.6-2.3-5.2-4.7-7.7-7.1c-2.5-2.4-5-4.9-7.6-7.3c-2.5-2.5-5-4.9-7.5-7.4C23,31.1,20.5,28.6,18.1,26z"/>
		</g>
		<g>
			<linearGradient id="SVGID_7_" gradientUnits="userSpaceOnUse" x1="43.231" y1="52.1233" x2="74.0389" y2="52.1233">
				<stop  offset="0" style="stop-color:#C2C9FF"/>
				<stop  offset="0.9946" style="stop-color:#DDFFDA"/>
			</linearGradient>
			<path class="st7" d="M43.6,37.4c2.6,2.3,5.2,4.7,7.7,7.1c2.5,2.4,5,4.9,7.6,7.3c2.5,2.5,5,4.9,7.5,7.4c2.5,2.5,4.9,5,7.3,7.5
				c-2.6-2.3-5.2-4.7-7.7-7.1c-2.5-2.4-5-4.9-7.6-7.3c-2.5-2.5-5-4.9-7.5-7.4C48.5,42.5,46,40,43.6,37.4z"/>
		</g>
		<g>
			<linearGradient id="SVGID_8_" gradientUnits="userSpaceOnUse" x1="42.5285" y1="30.4256" x2="60.9232" y2="30.4256">
				<stop  offset="0" style="stop-color:#C2C9FF"/>
				<stop  offset="0.9946" style="stop-color:#DDFFDA"/>
			</linearGradient>
			<path class="st8" d="M42.9,21.8c1.6,1.3,3.1,2.7,4.6,4.1c1.5,1.4,3,2.8,4.5,4.2c1.5,1.4,2.9,2.9,4.4,4.4c1.4,1.5,2.8,3,4.2,4.5
				c-1.6-1.3-3.1-2.7-4.6-4.1c-1.5-1.4-3-2.8-4.5-4.2c-1.5-1.4-2.9-2.9-4.3-4.4C45.7,24.8,44.3,23.4,42.9,21.8z"/>
		</g>
		<g>
			<linearGradient id="SVGID_9_" gradientUnits="userSpaceOnUse" x1="57.7101" y1="48.0763" x2="66.7423" y2="48.0763">
				<stop  offset="0" style="stop-color:#C2C9FF"/>
				<stop  offset="0.9946" style="stop-color:#DDFFDA"/>
			</linearGradient>
			<path class="st9" d="M58.1,44c1.6,1.1,3,2.4,4.4,3.8c1.4,1.4,2.7,2.8,3.9,4.3c-1.6-1.1-3-2.4-4.4-3.8C60.6,47,59.3,45.6,58.1,44z
				"/>
		</g>
	</g>
	<path class="st10" d="M107,47l4.4-2.8l-13.7-6.7l-4.4,2.8L107,47z"/>
	<path class="st10" d="M20.6,75.5l5.2,0l-8-13l-5.2,0L20.6,75.5z"/>
	<path class="st10" d="M55.2,84.8l3.3-0.6l-6.4-7.3l-3.3,0.6L55.2,84.8z"/>
</g>
<path class="st11" d="M47.1,33.4l33.6-4.5C80.7,28.8,54.7,31,47.1,33.4z"/>
<path class="st11" d="M22.1,8.9c0,0,24.9,24.8,25,24.4C47.4,32.5,26.7,12.1,22.1,8.9z"/>
<path class="st11" d="M35.2,69.1c0,0,11.9-35.4,11.9-35.8S35.4,64.4,35.2,69.1z"/>
</svg>
